<svg width="1400" height="875" viewBox="0 0 1400 875" fill="none" xmlns="http://www.w3.org/2000/svg">
  <rect width="1400" height="875" rx="56" fill="#F7F0E6"/>
  <rect x="118" y="92" width="1164" height="680" rx="42" fill="#EDE5DC"/>
  <rect x="254" y="178" width="892" height="520" rx="28" fill="#F7F0E6" stroke="#D8CDC0"/>
  <rect x="254" y="178" width="892" height="58" rx="28" fill="#111111"/>
  <circle cx="302" cy="207" r="10" fill="#B7372F"/>
  <circle cx="333" cy="207" r="10" fill="#F7F0E6" opacity=".55"/>
  <circle cx="364" cy="207" r="10" fill="#F7F0E6" opacity=".35"/>
  <rect x="428" y="198" width="150" height="14" rx="7" fill="#F7F0E6" opacity=".78"/>
  <rect x="820" y="198" width="172" height="14" rx="7" fill="#F7F0E6" opacity=".42"/>
  <rect x="294" y="276" width="252" height="356" rx="26" fill="white" fill-opacity=".55" stroke="#D8CDC0"/>
  <rect x="584" y="276" width="522" height="356" rx="26" fill="white" fill-opacity=".55" stroke="#D8CDC0"/>
  <rect x="326" y="318" width="114" height="12" rx="6" fill="#111111" opacity=".8"/>
  <rect x="326" y="358" width="170" height="10" rx="5" fill="#111111" opacity=".16"/>
  <rect x="326" y="386" width="132" height="10" rx="5" fill="#111111" opacity=".12"/>
  <rect x="326" y="456" width="176" height="52" rx="18" fill="#111111"/>
  <rect x="352" y="477" width="86" height="10" rx="5" fill="#F7F0E6" opacity=".8"/>
  <rect x="326" y="530" width="154" height="52" rx="18" fill="#111111" opacity=".12"/>
  <rect x="628" y="320" width="270" height="16" rx="8" fill="#111111" opacity=".85"/>
  <rect x="628" y="372" width="410" height="10" rx="5" fill="#111111" opacity=".16"/>
  <rect x="628" y="402" width="360" height="10" rx="5" fill="#111111" opacity=".13"/>
  <rect x="628" y="432" width="430" height="10" rx="5" fill="#111111" opacity=".13"/>
  <rect x="628" y="508" width="190" height="86" rx="22" fill="#111111" opacity=".08"/>
  <rect x="846" y="508" width="190" height="86" rx="22" fill="#111111" opacity=".08"/>
  <circle cx="1086" cy="310" r="13" fill="#B7372F"/>
</svg>
