<svg width="1200" height="675" viewBox="0 0 1200 675" fill="none" xmlns="http://www.w3.org/2000/svg">
  <rect width="1200" height="675" rx="44" fill="#F7F0E6"/>
  <rect x="130" y="86" width="940" height="502" rx="34" fill="white" fill-opacity=".48" stroke="#D8CDC0"/>
  <rect x="180" y="148" width="240" height="358" rx="28" fill="#111111"/>
  <rect x="472" y="148" width="548" height="358" rx="28" fill="#111111" fill-opacity=".08"/>
  <rect x="214" y="192" width="132" height="12" rx="6" fill="#F7F0E6"/>
  <rect x="214" y="236" width="160" height="10" rx="5" fill="#F7F0E6" opacity=".56"/>
  <rect x="214" y="268" width="108" height="10" rx="5" fill="#F7F0E6" opacity=".42"/>
  <rect x="214" y="346" width="134" height="42" rx="21" fill="#F7F0E6" opacity=".14"/>
  <rect x="528" y="204" width="310" height="16" rx="8" fill="#111111" opacity=".82"/>
  <rect x="528" y="268" width="418" height="10" rx="5" fill="#111111" opacity=".18"/>
  <rect x="528" y="302" width="370" height="10" rx="5" fill="#111111" opacity=".14"/>
  <rect x="528" y="336" width="430" height="10" rx="5" fill="#111111" opacity=".14"/>
  <rect x="528" y="428" width="176" height="46" rx="23" fill="#111111"/>
  <rect x="736" y="428" width="176" height="46" rx="23" fill="#111111" opacity=".12"/>
  <circle cx="965" cy="188" r="12" fill="#B7372F"/>
</svg>
