<svg width="1400" height="875" viewBox="0 0 1400 875" fill="none" xmlns="http://www.w3.org/2000/svg">
  <rect width="1400" height="875" rx="56" fill="#F7F0E6"/>
  <circle cx="270" cy="168" r="174" fill="#EFE1D2"/>
  <circle cx="1100" cy="662" r="230" fill="#EFE1D2"/>
  <rect x="180" y="130" width="1040" height="615" rx="42" fill="#EDE5DC"/>
  <rect x="260" y="204" width="880" height="468" rx="30" fill="#F7F0E6" stroke="#D8CDC0"/>
  <rect x="318" y="270" width="230" height="330" rx="28" fill="#111111"/>
  <rect x="586" y="270" width="230" height="330" rx="28" fill="#111111" fill-opacity=".1"/>
  <rect x="854" y="270" width="230" height="330" rx="28" fill="#111111" fill-opacity=".1"/>
  <g fill="#F7F0E6">
    <rect x="360" y="326" width="112" height="12" rx="6"/>
    <rect x="360" y="368" width="144" height="10" rx="5" opacity=".6"/>
    <rect x="360" y="400" width="98" height="10" rx="5" opacity=".44"/>
  </g>
  <g fill="#111111" opacity=".28">
    <rect x="628" y="326" width="112" height="12" rx="6"/>
    <rect x="628" y="368" width="144" height="10" rx="5"/>
    <rect x="628" y="400" width="98" height="10" rx="5"/>
    <rect x="896" y="326" width="112" height="12" rx="6"/>
    <rect x="896" y="368" width="144" height="10" rx="5"/>
    <rect x="896" y="400" width="98" height="10" rx="5"/>
  </g>
  <path d="M512 494C604 430 696 430 788 494C880 558 972 558 1064 494" stroke="#B7372F" stroke-width="10" stroke-linecap="round"/>
</svg>
